<svg xmlns="http://www.w3.org/2000/svg" xmlns:xlink="http://www.w3.org/1999/xlink" width="400" height="400" viewBox="0 0 400 400">
<rect data-name="background" width="100%" height="100%" fill="#ffffff"/><g data-name="watermark" class="watermark-logodesign" stroke="#ffffff" transform="translate(40, 280) scale(1.5) rotate(-45)" style="opacity:0.040000010281801224;"><path fill="#000000" d="M19.52,53.48c-10.32,0-17.72-7.64-17.72-17.32c0-10,8.2-17.76,18.32-17.76c10.36,0,17.76,7.48,17.76,17.56c0,6.24-3.56,9.84-7.84,9.84c-2.96,0-4.44-1.56-5.04-3.72c-1.48,2-3.64,3.08-6.16,3.08c-4.84,0-8.52-3.8-8.52-8.96c0-5.2,3.64-9,8.56-9c2.36,0,4.52,0.96,6,3l0-2.52l3.44,0l0,12.48c0,1.68,0.6,2.96,2.24,2.96c2.12,0,4.2-2.52,4.2-7.12c0-8.28-5.76-14.68-14.6-14.68c-8.48,0-15.24,6.44-15.24,14.84c0,8.16,6.24,14.4,14.68,14.4c2.88,0,6.04-0.68,8.2-2.4l0.8,2.88c-2.36,1.68-5.68,2.44-9.08,2.44z M19.36,41.92c3.24,0,5.64-2.4,5.64-5.76c0-3.32-2.36-5.68-5.64-5.68c-3.2,0-5.48,2.36-5.48,5.68s2.32,5.76,5.48,5.76z M46.84,42.4l14.72,0l0,4l-19.08,0l0-28l4.36,0l0,24z M74.8,46.92c-6.16,0-10.68-4.56-10.68-10.6c0-6,4.52-10.56,10.68-10.56s10.68,4.56,10.68,10.56c0,6.04-4.52,10.6-10.68,10.6z M74.8,43.12c3.84,0,6.6-2.92,6.6-6.76c0-3.88-2.76-6.8-6.6-6.8s-6.6,2.92-6.6,6.8c0,3.84,2.76,6.76,6.6,6.76z M105.68,26.28l4.2,0l0,19.4c0,5.6-4.08,9.64-10.2,9.64c-4.84,0-7.92-2.24-9.6-5.24l3.68-1.36c1.2,2,3.12,3.08,6,3.08c3.84,0,5.88-2.64,5.92-6.08l0-2.96c-1.56,2.12-4,3.4-7.08,3.4c-5.84,0-10.04-4.44-10.04-10.2c0-5.96,4.2-10.2,10.04-10.2c3.08,0,5.52,1.28,7.08,3.36l0-2.84z M99.24,42.4c3.72,0,6.56-2.72,6.56-6.44s-2.84-6.4-6.56-6.4c-3.88,0-6.56,2.68-6.56,6.4s2.68,6.44,6.56,6.44z M124.92,46.92c-6.16,0-10.68-4.56-10.68-10.6c0-6,4.52-10.56,10.68-10.56s10.68,4.56,10.68,10.56c0,6.04-4.52,10.6-10.68,10.6z M124.92,43.12c3.84,0,6.6-2.92,6.6-6.76c0-3.88-2.76-6.8-6.6-6.8s-6.6,2.92-6.6,6.8c0,3.84,2.76,6.76,6.6,6.76z M141.88,46.68c-1.56,0-2.76-1.2-2.76-2.72c0-1.48,1.2-2.68,2.76-2.68s2.76,1.2,2.76,2.68c0,1.52-1.2,2.72-2.76,2.72z M158.2,46.92c-5.68,0-10-4.52-10-10.6c0-6.04,4.32-10.56,10-10.56c3.24,0,5.72,1.4,7.24,3.56l0-3.04l4.16,0l0,20.12l-4.16,0l0-3.04c-1.52,2.16-4,3.56-7.24,3.56z M158.88,43.16c3.68,0,6.64-2.88,6.64-6.84c0-3.92-2.96-6.8-6.64-6.8c-3.84,0-6.56,2.84-6.56,6.8s2.72,6.84,6.56,6.84z M186.6,25.76c5.68,0,10.04,4.52,10.04,10.56c0,6.08-4.36,10.6-10.04,10.6c-3.2,0-5.68-1.4-7.2-3.56l0,11.44l-4.2,0l0-28.52l4.2,0l0,3.04c1.52-2.16,4-3.56,7.2-3.56z M185.92,43.16c3.84,0,6.56-2.88,6.56-6.84s-2.72-6.8-6.56-6.8c-3.68,0-6.64,2.88-6.64,6.8c0,3.96,2.96,6.84,6.64,6.84z M212.36,25.76c5.68,0,10.04,4.52,10.04,10.56c0,6.08-4.36,10.6-10.04,10.6c-3.2,0-5.68-1.4-7.2-3.56l0,11.44l-4.2,0l0-28.52l4.2,0l0,3.04c1.52-2.16,4-3.56,7.2-3.56z M211.68,43.16c3.84,0,6.56-2.88,6.56-6.84s-2.72-6.8-6.56-6.8c-3.68,0-6.64,2.88-6.64,6.8c0,3.96,2.96,6.84,6.64,6.84z"/></g><g data-name="icon" fill="#ff5c5c" data="id:7057757" transform="translate(82.70908735242465,170.14024016791774) scale(0.5971987960911762)">
  
 <path d="m68.508 74.445h-37.016c-0.73438 0-1.332-0.59766-1.332-1.332v-46.23c0-0.73437 0.59766-1.332 1.332-1.332h37.016c0.73438 0 1.332 0.59766 1.332 1.332v46.23c0 0.73438-0.59375 1.332-1.3281 1.332zm-35.684-2.6602h34.352v-43.57h-34.352z" fill-rule="evenodd"/>
 <path d="m79.172 41.488h-10.664c-0.73437 0-1.332-0.59766-1.332-1.332s0.59766-1.332 1.332-1.332h9.332v-8.1758c0-0.73438 0.59766-1.332 1.332-1.332h7.8281c0.73438 0 1.332 0.59766 1.332 1.332 0 0.73437-0.59766 1.332-1.332 1.332h-6.5v8.1758c0 0.73438-0.59766 1.332-1.332 1.332z" fill-rule="evenodd"/>
 <path d="m87 70.68h-7.8281c-0.73438 0-1.332-0.59766-1.332-1.332v-8.1758h-9.332c-0.73437 0-1.332-0.59766-1.332-1.332s0.59766-1.332 1.332-1.332h10.664c0.73438 0 1.332 0.59766 1.332 1.332v8.1758h6.5c0.73438 0 1.332 0.59766 1.332 1.332s-0.59766 1.332-1.332 1.332z" fill-rule="evenodd"/>
 <path d="m87 51.332h-18.492c-0.73437 0-1.332-0.59766-1.332-1.332s0.59766-1.332 1.332-1.332h18.492c0.73438 0 1.332 0.59766 1.332 1.332s-0.59766 1.332-1.332 1.332z" fill-rule="evenodd"/>
 <path d="m31.492 41.488h-10.664c-0.73438 0-1.332-0.59766-1.332-1.332v-8.1758h-6.5c-0.73438 0-1.332-0.59766-1.332-1.332 0-0.73438 0.59766-1.332 1.332-1.332h7.8281c0.73438 0 1.332 0.59766 1.332 1.332v8.1758h9.332c0.73438 0 1.332 0.59766 1.332 1.332s-0.59375 1.332-1.3281 1.332z" fill-rule="evenodd"/>
 <path d="m20.828 70.68h-7.8281c-0.73438 0-1.332-0.59766-1.332-1.332s0.59766-1.332 1.332-1.332h6.5v-8.1758c0-0.73438 0.59766-1.332 1.332-1.332h10.664c0.73438 0 1.332 0.59766 1.332 1.332s-0.59766 1.332-1.332 1.332h-9.332v8.1758c0 0.73438-0.59766 1.332-1.332 1.332z" fill-rule="evenodd"/>
 <path d="m31.492 51.332h-18.492c-0.73438 0-1.332-0.59766-1.332-1.332s0.59766-1.332 1.332-1.332h18.492c0.73437 0 1.332 0.59766 1.332 1.332s-0.59766 1.332-1.332 1.332z" fill-rule="evenodd"/>
 <path d="m9.1797 74.504c-2.8398 0-5.1523-2.3125-5.1523-5.1523 0-2.8398 2.3125-5.1523 5.1523-5.1523 2.8398 0 5.1523 2.3125 5.1523 5.1523 0 2.8398-2.3125 5.1523-5.1523 5.1523zm0-7.6406c-1.375 0-2.4922 1.1172-2.4922 2.4922s1.1172 2.4922 2.4922 2.4922 2.4922-1.1172 2.4922-2.4922-1.1172-2.4922-2.4922-2.4922z" fill-rule="evenodd"/>
 <path d="m9.1797 55.152c-2.8398 0-5.1523-2.3125-5.1523-5.1523s2.3125-5.1523 5.1523-5.1523c2.8398 0 5.1523 2.3125 5.1523 5.1523s-2.3125 5.1523-5.1523 5.1523zm0-7.6406c-1.375 0-2.4922 1.1172-2.4922 2.4922s1.1172 2.4922 2.4922 2.4922 2.4922-1.1172 2.4922-2.4922-1.1172-2.4922-2.4922-2.4922z" fill-rule="evenodd"/>
 <path d="m9.1797 35.801c-2.8398 0-5.1523-2.3125-5.1523-5.1523 0-2.8398 2.3125-5.1523 5.1523-5.1523 2.8398 0 5.1523 2.3125 5.1523 5.1523 0 2.8398-2.3125 5.1523-5.1523 5.1523zm0-7.6445c-1.375 0-2.4922 1.1172-2.4922 2.4922s1.1172 2.4922 2.4922 2.4922 2.4922-1.1172 2.4922-2.4922-1.1172-2.4922-2.4922-2.4922z" fill-rule="evenodd"/>
 <path d="m90.82 74.504c-2.8398 0-5.1523-2.3125-5.1523-5.1523 0-2.8398 2.3125-5.1523 5.1523-5.1523 2.8398 0 5.1523 2.3125 5.1523 5.1523 0 2.8398-2.3125 5.1523-5.1523 5.1523zm0-7.6406c-1.375 0-2.4922 1.1172-2.4922 2.4922s1.1172 2.4922 2.4922 2.4922 2.4922-1.1172 2.4922-2.4922-1.1172-2.4922-2.4922-2.4922z" fill-rule="evenodd"/>
 <path d="m90.82 55.152c-2.8398 0-5.1523-2.3125-5.1523-5.1523s2.3125-5.1523 5.1523-5.1523c2.8398 0 5.1523 2.3125 5.1523 5.1523s-2.3125 5.1523-5.1523 5.1523zm0-7.6406c-1.375 0-2.4922 1.1172-2.4922 2.4922s1.1172 2.4922 2.4922 2.4922 2.4922-1.1172 2.4922-2.4922-1.1172-2.4922-2.4922-2.4922z" fill-rule="evenodd"/>
 <path d="m90.82 35.801c-2.8398 0-5.1523-2.3125-5.1523-5.1523 0-2.8398 2.3125-5.1523 5.1523-5.1523 2.8398 0 5.1523 2.3125 5.1523 5.1523 0 2.8398-2.3125 5.1523-5.1523 5.1523zm0-7.6445c-1.375 0-2.4922 1.1172-2.4922 2.4922s1.1172 2.4922 2.4922 2.4922 2.4922-1.1172 2.4922-2.4922-1.1172-2.4922-2.4922-2.4922z" fill-rule="evenodd"/>
 <path d="m61.984 28.215c-0.73438 0-1.332-0.59766-1.332-1.332v-10.77c0-0.73438 0.59766-1.332 1.332-1.332s1.332 0.59766 1.332 1.332v10.77c0 0.73438-0.59375 1.332-1.332 1.332z" fill-rule="evenodd"/>
 <path d="m61.984 17.445c-2.8398 0-5.1523-2.3125-5.1523-5.1523 0-2.8398 2.3125-5.1523 5.1523-5.1523s5.1523 2.3125 5.1523 5.1523c0 2.8398-2.3125 5.1523-5.1523 5.1523zm0-7.6406c-1.375 0-2.4922 1.1172-2.4922 2.4922s1.1172 2.4922 2.4922 2.4922 2.4922-1.1172 2.4922-2.4922-1.1172-2.4922-2.4922-2.4922z" fill-rule="evenodd"/>
 <path d="m50 28.215c-0.73438 0-1.332-0.59766-1.332-1.332v-17.902c0-0.73438 0.59766-1.332 1.332-1.332s1.332 0.59766 1.332 1.332v17.902c0 0.73438-0.59766 1.332-1.332 1.332z" fill-rule="evenodd"/>
 <path d="m50 10.312c-2.8398 0-5.1523-2.3125-5.1523-5.1523s2.3125-5.1523 5.1523-5.1523 5.1523 2.3125 5.1523 5.1523-2.3125 5.1523-5.1523 5.1523zm0-7.6406c-1.375 0-2.4922 1.1172-2.4922 2.4922s1.1172 2.4922 2.4922 2.4922 2.4922-1.1172 2.4922-2.4922-1.1172-2.4922-2.4922-2.4922z" fill-rule="evenodd"/>
 <path d="m38.012 28.215c-0.73438 0-1.332-0.59766-1.332-1.332v-10.77c0-0.73438 0.59766-1.332 1.332-1.332s1.332 0.59766 1.332 1.332v10.77c0 0.73438-0.59766 1.332-1.332 1.332z" fill-rule="evenodd"/>
 <path d="m38.016 17.445c-2.8398 0-5.1523-2.3125-5.1523-5.1523 0-2.8398 2.3125-5.1523 5.1523-5.1523s5.1523 2.3125 5.1523 5.1523c0 2.8398-2.3125 5.1523-5.1523 5.1523zm0-7.6406c-1.375 0-2.4922 1.1172-2.4922 2.4922s1.1172 2.4922 2.4922 2.4922 2.4922-1.1172 2.4922-2.4922-1.1172-2.4922-2.4922-2.4922z" fill-rule="evenodd"/>
 <path d="m50 60.055c-1.7578 0-3.625-1.2617-3.625-3.5977v-2.832h-2.832c-2.3359 0-3.5977-1.8672-3.5977-3.625s1.2617-3.625 3.5977-3.625h2.832v-2.832c0-2.3359 1.8672-3.5977 3.625-3.5977s3.625 1.2617 3.625 3.5977v2.832h2.832c2.3359 0 3.5977 1.8672 3.5977 3.625s-1.2617 3.625-3.5977 3.625h-2.832v2.832c0 2.3359-1.8672 3.5977-3.625 3.5977zm-6.457-11.02c-0.84375 0-0.93359 0.67578-0.93359 0.96484s0.089844 0.96484 0.93359 0.96484h4.1602c0.73438 0 1.332 0.59766 1.332 1.332v4.1602c0 0.84375 0.67578 0.93359 0.96484 0.93359s0.96484-0.089844 0.96484-0.93359v-4.1602c0-0.73438 0.59766-1.332 1.332-1.332h4.1602c0.84375 0 0.93359-0.67578 0.93359-0.96484s-0.089844-0.96484-0.93359-0.96484h-4.1602c-0.73438 0-1.332-0.59766-1.332-1.332v-4.1602c0-0.84375-0.67578-0.93359-0.96484-0.93359s-0.96484 0.089844-0.96484 0.93359v4.1602c0 0.73438-0.59766 1.332-1.332 1.332z" fill-rule="evenodd"/>
 <path d="m50 66.008c-8.8242 0-16.008-7.1797-16.008-16.008 0-8.8242 7.1797-16.008 16.008-16.008 8.8242 0 16.008 7.1797 16.008 16.008 0 8.8242-7.1797 16.008-16.008 16.008zm0-29.352c-7.3594 0-13.344 5.9883-13.344 13.344 0 7.3594 5.9883 13.348 13.344 13.348 7.3594 0 13.348-5.9883 13.348-13.348s-5.9883-13.344-13.348-13.344z" fill-rule="evenodd"/>
 <path d="m61.984 85.215c-0.73438 0-1.332-0.59766-1.332-1.332v-10.77c0-0.73438 0.59766-1.332 1.332-1.332s1.332 0.59766 1.332 1.332v10.77c0 0.73438-0.59375 1.332-1.332 1.332z" fill-rule="evenodd"/>
 <path d="m61.984 92.859c-2.8398 0-5.1523-2.3125-5.1523-5.1523 0-2.8398 2.3125-5.1523 5.1523-5.1523s5.1523 2.3125 5.1523 5.1523c0 2.8398-2.3125 5.1523-5.1523 5.1523zm0-7.6445c-1.375 0-2.4922 1.1172-2.4922 2.4922s1.1172 2.4922 2.4922 2.4922 2.4922-1.1172 2.4922-2.4922-1.1172-2.4922-2.4922-2.4922z" fill-rule="evenodd"/>
 <path d="m50 92.348c-0.73438 0-1.332-0.59766-1.332-1.332v-17.902c0-0.73438 0.59766-1.332 1.332-1.332s1.332 0.59766 1.332 1.332v17.902c0 0.73438-0.59766 1.332-1.332 1.332z" fill-rule="evenodd"/>
 <path d="m50 99.992c-2.8398 0-5.1523-2.3125-5.1523-5.1523s2.3125-5.1523 5.1523-5.1523 5.1523 2.3125 5.1523 5.1523-2.3125 5.1523-5.1523 5.1523zm0-7.6445c-1.375 0-2.4922 1.1172-2.4922 2.4922s1.1172 2.4922 2.4922 2.4922 2.4922-1.1172 2.4922-2.4922-1.1172-2.4922-2.4922-2.4922z" fill-rule="evenodd"/>
 <path d="m38.012 85.215c-0.73438 0-1.332-0.59766-1.332-1.332v-10.77c0-0.73438 0.59766-1.332 1.332-1.332s1.332 0.59766 1.332 1.332v10.77c0 0.73438-0.59766 1.332-1.332 1.332z" fill-rule="evenodd"/>
 <path d="m38.016 92.859c-2.8398 0-5.1523-2.3125-5.1523-5.1523 0-2.8398 2.3125-5.1523 5.1523-5.1523s5.1523 2.3125 5.1523 5.1523c0 2.8398-2.3125 5.1523-5.1523 5.1523zm0-7.6445c-1.375 0-2.4922 1.1172-2.4922 2.4922s1.1172 2.4922 2.4922 2.4922 2.4922-1.1172 2.4922-2.4922-1.1172-2.4922-2.4922-2.4922z" fill-rule="evenodd"/>

  </g><g data-name="business_name" fill="#ff5c5c" data="id:174" transform="translate(163.98731832482417,148.1844367089289) scale(1.4393212787877379)"><path d="M14.08,42.32l1.04,3.44c-1.52,0.64-2.84,0.96-4.44,0.96c-4.32,0-6.28-2.72-6.28-6.84l0-9.88l-3.68,0l0-3.72l3.68,0l0-6.72l4.16,0l0,6.72l6.4,0l0,3.72l-6.4,0l0,9.88c0,1.96,0.96,3.08,2.88,3.08c1,0,1.72-0.2,2.64-0.64z M28.68,46.92c-6.16,0-10.68-4.56-10.68-10.6c0-6,4.52-10.56,10.68-10.56s10.68,4.56,10.68,10.56c0,6.04-4.52,10.6-10.68,10.6z M28.68,43.12c3.84,0,6.6-2.92,6.6-6.76c0-3.88-2.76-6.8-6.6-6.8s-6.6,2.92-6.6,6.8c0,3.84,2.76,6.76,6.6,6.76z M55.08,25.76c5.68,0,10.04,4.52,10.04,10.56c0,6.08-4.36,10.6-10.04,10.6c-3.2,0-5.68-1.4-7.2-3.56l0,11.44l-4.2,0l0-28.52l4.2,0l0,3.04c1.52-2.16,4-3.56,7.2-3.56z M54.4,43.16c3.84,0,6.56-2.88,6.56-6.84s-2.72-6.8-6.56-6.8c-3.68,0-6.64,2.88-6.64,6.8c0,3.96,2.96,6.84,6.64,6.84z M71.4,46.68c-1.56,0-2.76-1.2-2.76-2.72c0-1.48,1.2-2.68,2.76-2.68s2.76,1.2,2.76,2.68c0,1.52-1.2,2.72-2.76,2.72z M92.64,46.4l-6.8-8.52l-2.68,2.88l0,5.64l-4.2,0l0-29.2l4.2,0l0,18.24l8.4-9.16l4.96,0l-8.04,8.72l8.96,11.4l-4.8,0z M100.64,46.4l0-29.2l4.2,0l0,29.2l-4.2,0z"/></g></svg>